<svg id="Wedding-Cake--Streamline-Atlas" xmlns="http://www.w3.org/2000/svg" viewBox="-0.5 -0.5 16 16" height="16" width="16"><desc>Wedding Cake Streamline Icon: https://streamlinehq.com</desc><defs></defs><path d="M8.1625 0.3125a0.8 0.8 0 0 0 -0.6625000000000001 0.35624999999999996 0.8 0.8 0 0 0 -1.4625 0.44375C6.0375 2.30625 7.5 2.70625 7.5 2.70625s1.4625 -0.4 1.4625 -1.59375A0.8 0.8 0 0 0 8.1625 0.3125Z" fill="#000000" stroke-width="1"></path><path d="m14.675 14.0625 -14.350000000000001 0" fill="none" stroke="#000000" stroke-miterlimit="10" stroke-width="1"></path><path d="M2.11875 9.875h10.7625v4.1875H2.11875Z" fill="none" stroke="#000000" stroke-miterlimit="10" stroke-width="1"></path><path d="M3.9124999999999996 6.29375h7.175000000000001v3.5875000000000004H3.9124999999999996Z" fill="none" stroke="#000000" stroke-miterlimit="10" stroke-width="1"></path><path d="M5.706250000000001 3.9000000000000004h3.5875000000000004v2.39375H5.706250000000001Z" fill="none" stroke="#000000" stroke-miterlimit="10" stroke-width="1"></path><path d="m2.11875 9.875 0.5375 0.94375a2.39375 2.39375 0 0 0 4.025 0.20625000000000002L7.5 9.875" fill="none" stroke="#000000" stroke-miterlimit="10" stroke-width="1"></path><path d="m12.88125 9.875 -0.5375 0.94375a2.39375 2.39375 0 0 1 -4.025 0.20625000000000002L7.5 9.875" fill="none" stroke="#000000" stroke-miterlimit="10" stroke-width="1"></path><path d="m3.9124999999999996 5.09375 0 1.2" fill="none" stroke="#000000" stroke-miterlimit="10" stroke-width="1"></path><path d="m2.11875 8.68125 0 1.1937499999999999" fill="none" stroke="#000000" stroke-miterlimit="10" stroke-width="1"></path><path d="m11.087499999999999 5.09375 0 1.2" fill="none" stroke="#000000" stroke-miterlimit="10" stroke-width="1"></path><path d="m12.88125 8.68125 0 1.1937499999999999" fill="none" stroke="#000000" stroke-miterlimit="10" stroke-width="1"></path><path d="m8.69375 8.68125 0 1.1937499999999999" fill="none" stroke="#000000" stroke-miterlimit="10" stroke-width="1"></path><path d="m6.30625 8.68125 0 1.1937499999999999" fill="none" stroke="#000000" stroke-miterlimit="10" stroke-width="1"></path><path d="m7.5 2.10625 0 1.7937500000000002" fill="none" stroke="#000000" stroke-miterlimit="10" stroke-width="1"></path></svg>