<svg xmlns="http://www.w3.org/2000/svg" viewBox="0 0 16 16" fill="#000000" id="X-Thin--Streamline-Phosphor-Thin" height="16" width="16"><desc>X Thin Streamline Icon: https://streamlinehq.com</desc><path d="M15.71908125 15.135225c0.224725 0.224725 0.12190625 0.60845 -0.185075 0.69070625 -0.142475 0.038175 -0.2944875 -0.00255625 -0.39878125 -0.10685L8 8.58385625 0.864775 15.71908125c-0.224725 0.224725 -0.60845 0.12190625 -0.69070625 -0.185075 -0.038175 -0.142475 0.00255625 -0.2944875 0.10685 -0.39878125L7.41614375 8 0.28091875 0.864775C0.05619375 0.64005 0.1590125 0.256325 0.46599375 0.17406875c0.142475 -0.038175 0.2944875 0.00255625 0.39878125 0.10685L8 7.41614375 15.135225 0.28091875c0.224725 -0.224725 0.60845 -0.12190625 0.69070625 0.185075 0.038175 0.142475 -0.00255625 0.2944875 -0.10685 0.39878125L8.58385625 8Z" stroke-width="0.0625"></path></svg>