<svg viewBox="-0.5 -0.5 16 16" fill="none" xmlns="http://www.w3.org/2000/svg" id="Refresh--Streamline-Solar-Ar" height="16" width="16">
  <desc>
    Refresh Streamline Icon: https://streamlinehq.com
  </desc>
  <path d="m2.29988125 7.0833125 -0.46875 0 0.46875 0Zm0 1.0416875 -0.33015000000000005 0.33275c0.18275625 0.18131250000000002 0.47754375000000004 0.18131250000000002 0.6603000000000001 0L2.29988125 8.125Zm1.3800375 -0.7089375c0.18377500000000002 -0.18231250000000002 0.1849375 -0.47912499999999997 0.0026 -0.662875 -0.18233749999999999 -0.1838125 -0.47913125 -0.1849375 -0.66290625 -0.0026249999999999997l0.66030625 0.6655Zm-2.09976875 -0.6655c-0.18377500000000002 -0.18231250000000002 -0.48056875 -0.1811875 -0.66290625 0.0026249999999999997 -0.18233749999999999 0.18375 -0.18116875000000002 0.4805625 0.00260625 0.662875l0.6603000000000001 -0.6655ZM11.63475 4.62049375c0.1355625 0.2205375 0.42424999999999996 0.2894125 0.6448125 0.15383125 0.2205 -0.13558125000000001 0.289375 -0.42428124999999994 0.15381250000000002 -0.64481875l-0.798625 0.49098749999999997ZM7.549312500000001 1.40625c-3.15459375 0 -5.71818125 2.53825 -5.71818125 5.6770625h0.9375c0 -2.6141125 2.13689375 -4.7395625 4.78068125 -4.7395625v-0.9375Zm-5.71818125 5.6770625 0 1.0416875 0.9375 0 0 -1.0416875 -0.9375 0Zm0.7989 1.3744375 1.0498875 -1.0416875 -0.66030625 -0.6655 -1.04988125 1.0416875 0.6603000000000001 0.6655Zm0 -0.6655 -1.04988125 -1.0416875 -0.6603000000000001 0.6655 1.04988125 1.0416875 0.6603000000000001 -0.6655ZM12.433375 4.12950625C11.429375 2.49641875 9.6170625 1.40625 7.549312500000001 1.40625v0.9375c1.7309375 0 3.246125 0.91153125 4.085437499999999 2.27674375l0.798625 -0.49098749999999997Z" fill="#000000" stroke-width="1"></path>
  <path d="m12.6961875 6.875 0.3295 -0.333375c-0.18256250000000002 -0.1805 -0.47643749999999996 -0.1805 -0.659 0l0.3295 0.333375Zm-1.3834374999999999 0.7083125c-0.18412499999999998 0.18193750000000003 -0.1858125 0.47875 -0.003875 0.662875 0.182 0.18412499999999998 0.4788125 0.185875 0.6629375 0.003875l-0.6590625 -0.66675Zm2.1078125 0.66675c0.18412499999999998 0.182 0.48093749999999996 0.18025 0.662875 -0.003875 0.182 -0.18412499999999998 0.1803125 -0.48093749999999996 -0.0038125000000000004 -0.6629375l-0.6590625 0.6668125Zm-10.09685 2.12875c-0.13596250000000001 -0.2203125 -0.424775 -0.2886875 -0.64508125 -0.1526875 -0.2203125 0.1359375 -0.2886875 0.42474999999999996 -0.15273125 0.6450625l0.7978125 -0.49237499999999995ZM7.4266875 13.59375c3.164 0 5.738250000000001 -2.5365625000000005 5.738250000000001 -5.6770625h-0.9375c0 2.6124375 -2.1441875 4.7395625 -4.80075 4.7395625v0.9375Zm5.738250000000001 -5.6770625V6.875h-0.9375v1.0416875h0.9375Zm-0.7982499999999999 -1.3750624999999999 -1.0539375 1.0416875 0.6590625 0.66675 1.053875 -1.0416875 -0.659 -0.66675Zm0 0.66675 1.053875 1.0416875 0.6590625 -0.6668125 -1.0539375 -1.041625 -0.659 0.66675ZM2.5259 10.8711875C3.5337812499999997 12.504375000000001 5.352518750000001 13.59375 7.4266875 13.59375v-0.9375c-1.73904375 0 -3.2605375 -0.9123125 -4.102975 -2.2774375l-0.7978125 0.49237499999999995Z" fill="#000000" stroke-width="1"></path>
</svg>