<svg xmlns="http://www.w3.org/2000/svg" viewBox="0 0 16 16" fill="#000000" id="Arrow-Big-Down-Line--Streamline-Tabler-Filled" height="16" width="16"><desc>Arrow Big Down Line Streamline Icon: https://streamlinehq.com</desc><path d="m6 3.333333333333333 -0.078 0.004666666666666666A0.6666666666666666 0.6666666666666666 0 0 0 5.333333333333333 4v3.3326666666666664L3.609333333333333 7.333333333333333A1.3333333333333333 1.3333333333333333 0 0 0 2.6666666666666665 9.609333333333332L7.057333333333333 14a1.3333333333333333 1.3333333333333333 0 0 0 1.885333333333333 0L13.333333333333332 9.609333333333332a1.3333333333333333 1.3333333333333333 0 0 0 0.28933333333333333 -1.4533333333333334l-0.04533333333333334 -0.09666666666666665A1.3333333333333333 1.3333333333333333 0 0 0 12.390666666666664 7.333333333333333L10.666666666666666 7.332666666666666V4a0.6666666666666666 0.6666666666666666 0 0 0 -0.6666666666666666 -0.6666666666666666H6z" stroke-width="0.6667"></path><path d="M10 1.3333333333333333a0.6666666666666666 0.6666666666666666 0 0 1 0.078 1.3286666666666667L10 2.6666666666666665H6a0.6666666666666666 0.6666666666666666 0 0 1 -0.078 -1.3286666666666667L6 1.3333333333333333h4z" stroke-width="0.6667"></path></svg>