<svg viewBox="0 0 16 16" fill="none" xmlns="http://www.w3.org/2000/svg" id="Flag-2--Streamline-Solar" height="16" width="16"><desc>Flag 2 Streamline Icon: https://streamlinehq.com</desc><path d="M3.833333333333333 0.6666666666666666c0.27614 0 0.5 0.22385999999999998 0.5 0.5V2.4l1.1471133333333332 -0.22941999999999999c1.1003533333333333 -0.22007333333333334 2.240953333333333 -0.11535333333333332 3.2828199999999996 0.3014l0.2755333333333333 0.11021333333333333c0.9499333333333333 0.37995999999999996 1.9954 0.45092 2.9879333333333333 0.20278 0.42066666666666663 -0.10515999999999999 0.7584666666666666 0.35076 0.5354 0.7225733333333333l-0.8523333333333333 1.4205933333333332c-0.22766666666666668 0.37944 -0.3415333333333333 0.56916 -0.36853333333333327 0.77552 -0.011199999999999998 0.08608 -0.011199999999999998 0.17326666666666668 0 0.2593466666666666 0.027 0.20636 0.14086666666666664 0.39608 0.36853333333333327 0.7755266666666666l1.0404 1.7340666666666666c0.2072 0.3453333333333333 0.021933333333333332 0.7927333333333333 -0.3688 0.8903999999999999l-0.06673333333333333 0.016666666666666666c-1.1797333333333333 0.2949333333333333 -2.4223333333333334 0.2106 -3.5513999999999997 -0.241 -1.0418666666666665 -0.41679999999999995 -2.1824666666666666 -0.5214666666666666 -3.2828199999999996 -0.3014L4.333333333333333 9.066666666666666v5.433333333333334c0 0.27613333333333334 -0.22385999999999998 0.5 -0.5 0.5S3.333333333333333 14.776133333333334 3.333333333333333 14.5v-13.333333333333332c0 -0.27614 0.22385999999999998 -0.5 0.5 -0.5Z" fill="#000000" stroke-width="0.6667"></path></svg>