<svg xmlns="http://www.w3.org/2000/svg" viewBox="0 0 16 16" id="Fork-Knife-Fill--Streamline-Mingcute-Fill" height="16" width="16" fill="currentColor"><desc>Fork Knife Fill Streamline Icon: https://streamlinehq.com</desc><g fill="none" fill-rule="evenodd"><path d="M16 0v16H0V0h16ZM8.395999999999999 15.505333333333333l-0.008 0.0013333333333333333 -0.047333333333333324 0.023333333333333334 -0.013333333333333332 0.0026666666666666666 -0.009333333333333332 -0.0026666666666666666 -0.047333333333333324 -0.023999999999999997c-0.006666666666666666 -0.002 -0.012666666666666666 0 -0.016 0.004l-0.0026666666666666666 0.006666666666666666 -0.011333333333333334 0.2853333333333333 0.003333333333333333 0.013333333333333332 0.006666666666666666 0.008666666666666666 0.06933333333333333 0.049333333333333326 0.009999999999999998 0.0026666666666666666 0.008 -0.0026666666666666666 0.06933333333333333 -0.049333333333333326 0.008 -0.010666666666666666 0.0026666666666666666 -0.011333333333333334 -0.011333333333333334 -0.2846666666666666c-0.0013333333333333333 -0.006666666666666666 -0.005999999999999999 -0.011333333333333334 -0.010666666666666666 -0.011999999999999999Zm0.176 -0.07533333333333334 -0.009333333333333332 0.0013333333333333333 -0.12266666666666666 0.062 -0.006666666666666666 0.006666666666666666 -0.002 0.007333333333333332 0.011999999999999999 0.2866666666666666 0.003333333333333333 0.008 0.005333333333333333 0.005333333333333333 0.134 0.06133333333333333c0.008 0.0026666666666666666 0.015333333333333332 0 0.019333333333333334 -0.005333333333333333l0.0026666666666666666 -0.009333333333333332 -0.02266666666666667 -0.4093333333333333c-0.002 -0.008 -0.006666666666666666 -0.013333333333333332 -0.013333333333333332 -0.014666666666666665Zm-0.4766666666666666 0.0013333333333333333a0.015333333333333332 0.015333333333333332 0 0 0 -0.018 0.004l-0.004 0.009333333333333332 -0.02266666666666667 0.4093333333333333c0 0.008 0.004666666666666666 0.013333333333333332 0.011333333333333334 0.016l0.009999999999999998 -0.0013333333333333333 0.134 -0.062 0.006666666666666666 -0.005333333333333333 0.002 -0.007333333333333332 0.011999999999999999 -0.2866666666666666 -0.002 -0.008 -0.006666666666666666 -0.006666666666666666 -0.12266666666666666 -0.06133333333333333Z" stroke-width="0.6667"></path><path fill="#000000" d="M12.273333333333333 2.191333333333333a0.6666666666666666 0.6666666666666666 0 0 1 -0.15533333333333332 0.9299999999999999l-1.4006666666666665 1.0006666666666666a1.31 1.31 0 0 0 -0.508 1.3926666666666665l2.2286666666666664 -2.2286666666666664a0.6666666666666666 0.6666666666666666 0 1 1 0.9426666666666665 0.9426666666666665l-2.2286666666666664 2.2286666666666664a1.31 1.31 0 0 0 1.3926666666666665 -0.508l1.0006666666666666 -1.4006666666666665a0.6666666666666666 0.6666666666666666 0 0 1 1.0846666666666667 0.7746666666666666l-1 1.401333333333333a2.6446666666666667 2.6446666666666667 0 0 1 -3.489333333333333 0.744l-1.1573333333333333 1.1573333333333333 3.202 3.2026666666666666a0.6666666666666666 0.6666666666666666 0 0 1 -0.9426666666666665 0.9426666666666665l-3.202 -3.202 -3.1453333333333333 3.1446666666666663a0.6666666666666666 0.6666666666666666 0 1 1 -0.9426666666666665 -0.9426666666666665l3.1446666666666663 -3.1453333333333333 -1.04 -1.04 -0.9426666666666665 0.9426666666666665a0.6666666666666666 0.6666666666666666 0 0 1 -0.9426666666666665 0l-1.47 -1.4693333333333334a3.333333333333333 3.333333333333333 0 0 1 -0.624 -3.848c0.12533333333333332 -0.25066666666666665 0.26866666666666666 -0.4766666666666666 0.5726666666666667 -0.5266666666666666a0.6666666666666666 0.6666666666666666 0 0 1 0.578 0.18666666666666668L6.5266666666666655 6.1693333333333324l0.0026666666666666666 0.0026666666666666666 1.5119999999999998 1.5119999999999998 1.1573333333333333 -1.1573333333333333a2.6446666666666667 2.6446666666666667 0 0 1 0.744 -3.488666666666666l1.401333333333333 -1.0006666666666666a0.6666666666666666 0.6666666666666666 0 0 1 0.9299999999999999 0.15466666666666667Z" stroke-width="0.6667"></path></g></svg>