<svg xmlns="http://www.w3.org/2000/svg" viewBox="0 0 16 16" id="Magnifying-Glass-Minus--Streamline-Font-Awesome" height="16" width="16"><desc>Magnifying Glass Minus Streamline Icon: https://streamlinehq.com</desc><!--! Font Awesome Free 6.5.2 by @fontawesome - https://fontawesome.com License - https://fontawesome.com/license/free (Icons: CC BY 4.0, Fonts: SIL OFL 1.1, Code: MIT License) Copyright 2024 Fonticons, Inc.--><path d="M12.899665625 6.529065625c0 1.405484375 -0.456246875 2.70379375 -1.224821875 3.7571375l3.876559375 3.87961875c0.38275625 0.38275625 0.38275625 1.004353125 0 1.387109375s-1.004353125 0.382759375 -1.387109375 0L10.287734375 11.6733125c-1.05334375 0.7716375 -2.35165625 1.224821875 -3.7571375 1.224821875 -3.518296875 0 -6.369065625 -2.85076875 -6.369065625 -6.36906875S3.0123 0.16 6.530596875 0.16s6.36906875 2.85076875 6.36906875 6.369065625Zm-8.57374375 -0.734890625c-0.407253125 0 -0.73489375 0.3276375 -0.73489375 0.734890625s0.327640625 0.73489375 0.73489375 0.73489375h4.409353125c0.407253125 0 0.73489375 -0.327640625 0.73489375 -0.73489375s-0.327640625 -0.734890625 -0.73489375 -0.734890625H4.325921875Z" fill="#000000" stroke-width="0.0313"></path></svg>