<svg xmlns="http://www.w3.org/2000/svg" viewBox="0 0 16 16" fill="#000000" id="Hand-Heart-Fill--Streamline-Phosphor-Fill" height="16" width="16"><desc>Hand Heart Fill Streamline Icon: https://streamlinehq.com</desc><path d="M15.20545625 9.1144125c-0.34535 -0.26615 -0.7848375 -0.37879375 -1.21563125 -0.31158125 1.2267375 -1.23849375 1.8472875 -2.4698 1.8472875 -3.6769375 0 -1.72905625 -1.39069375 -3.135425 -3.10015 -3.135425 -0.918175 -0.0057625 -1.79190625 0.39475625 -2.3868375 1.09413125 -0.5949375 -0.699375 -1.46866875 -1.09989375 -2.38684375 -1.09413125 -1.70945625 0 -3.10015 1.40636875 -3.10015 3.135425 0 0.71853125 0.21164375 1.41681875 0.6571375 2.1556 -0.3648625 0.0924375 -0.6978375 0.2820625 -0.96349375 0.5487l-1.47756875 1.4762625H1.2051375c-0.5772125 0 -1.0451375 0.467925 -1.0451375 1.04514375v2.61285c0 0.5772125 0.467925 1.0451375 1.0451375 1.0451375h6.79341875c0.042725 0.000025 0.0852875 -0.00524375 0.126725 -0.015675l4.1805625 -1.0451375c0.02664375 -0.00634375 0.0526625 -0.01509375 0.07773125 -0.02613125l2.5390375 -1.0804125 0.02874375 -0.01306875c1.06340625 -0.531375 1.2016625 -1.99345625 0.2567125 -2.71475Zm-0.71200625 1.773475 -2.48220625 1.05689375 -4.07800625 1.01966875H3.81799375v-2.91920625l1.47821875 -1.47756875c0.19533125 -0.19689375 0.46144375 -0.30724375 0.7387875 -0.30635625h3.26998125c0.6034125 0.000025 0.98055 0.65325625 0.678825 1.1758125 -0.14003125 0.24250625 -0.39879375 0.39189375 -0.678825 0.39189375h-1.82899375c-0.402275 0.00044375 -0.653225 0.43619375 -0.45170625 0.78435 0.093325 0.16123125 0.26541875 0.2605875 0.45170625 0.26079375h2.09028125c0.03933125 -0.0001125 0.0785375 -0.00449375 0.116925 -0.0130625l4.376525 -1.00660625 0.02025 -0.005225c0.4166875 -0.115675 0.80234375 0.2631 0.69418125 0.6818 -0.03965625 0.15349375 -0.1423125 0.28308125 -0.28265625 0.3568125Z" stroke-width="0.0625"></path></svg>