<svg xmlns="http://www.w3.org/2000/svg" fill="none" viewBox="0 0 16 16" id="Chat-Round-Dots--Streamline-Solar" height="16" width="16"><desc>Chat Round Dots Streamline Icon: https://streamlinehq.com</desc><path fill="#000000" fill-rule="evenodd" d="M14.666666666666666 8c0 3.6819999999999995 -2.9846666666666666 6.666666666666666 -6.666666666666666 6.666666666666666 -1.0666666666666667 0 -2.0746666666666664 -0.25066666666666665 -2.968 -0.696a1.0893333333333333 1.0893333333333333 0 0 0 -0.766 -0.08866666666666667l-1.484 0.3973333333333333a0.8666666666666667 0.8666666666666667 0 0 1 -1.0606666666666666 -1.0613333333333332l0.3966666666666666 -1.484a1.0886666666666667 1.0886666666666667 0 0 0 -0.08933333333333333 -0.7653333333333332A6.640000000000001 6.640000000000001 0 0 1 1.3333333333333333 8C1.3333333333333333 4.318 4.318 1.3333333333333333 8 1.3333333333333333s6.666666666666666 2.9846666666666666 6.666666666666666 6.666666666666666Zm-4 0.6666666666666666a0.6666666666666666 0.6666666666666666 0 1 1 0 -1.3333333333333333 0.6666666666666666 0.6666666666666666 0 0 1 0 1.3333333333333333Zm-3.333333333333333 -0.6666666666666666a0.6666666666666666 0.6666666666666666 0 1 0 1.3333333333333333 0 0.6666666666666666 0.6666666666666666 0 0 0 -1.3333333333333333 0Zm-2 0.6666666666666666a0.6666666666666666 0.6666666666666666 0 1 1 0 -1.3333333333333333 0.6666666666666666 0.6666666666666666 0 0 1 0 1.3333333333333333Z" clip-rule="evenodd" stroke-width="0.6667"></path></svg>