<svg xmlns="http://www.w3.org/2000/svg" viewBox="0 0 16 16" id="Phone-Fill--Streamline-Mingcute-Fill" height="16" width="16"><desc>Phone Fill Streamline Icon: https://streamlinehq.com</desc><g fill="none" fill-rule="evenodd"><path d="M16 0v16H0V0h16ZM8.395333333333333 15.505333333333333l-0.007333333333333332 0.0013333333333333333 -0.047333333333333324 0.023333333333333334 -0.013333333333333332 0.0026666666666666666 -0.009333333333333332 -0.0026666666666666666 -0.047333333333333324 -0.023333333333333334c-0.006666666666666666 -0.0026666666666666666 -0.012666666666666666 -0.0006666666666666666 -0.016 0.003333333333333333l-0.0026666666666666666 0.006666666666666666 -0.011333333333333334 0.2853333333333333 0.003333333333333333 0.013333333333333332 0.006666666666666666 0.008666666666666666 0.06933333333333333 0.049333333333333326 0.009999999999999998 0.0026666666666666666 0.008 -0.0026666666666666666 0.06933333333333333 -0.049333333333333326 0.008 -0.010666666666666666 0.0026666666666666666 -0.011333333333333334 -0.011333333333333334 -0.2846666666666666c-0.0013333333333333333 -0.006666666666666666 -0.005999999999999999 -0.011333333333333334 -0.011333333333333334 -0.011999999999999999Zm0.17666666666666667 -0.07533333333333334 -0.008666666666666666 0.0013333333333333333 -0.12333333333333332 0.062 -0.006666666666666666 0.006666666666666666 -0.002 0.007333333333333332 0.011999999999999999 0.2866666666666666 0.003333333333333333 0.008 0.005333333333333333 0.004666666666666666 0.134 0.062c0.008 0.0026666666666666666 0.015333333333333332 0 0.019333333333333334 -0.005333333333333333l0.0026666666666666666 -0.009333333333333332 -0.02266666666666667 -0.4093333333333333c-0.002 -0.008 -0.006666666666666666 -0.013333333333333332 -0.013333333333333332 -0.014666666666666665Zm-0.4766666666666666 0.0013333333333333333a0.015333333333333332 0.015333333333333332 0 0 0 -0.018 0.004l-0.004 0.009333333333333332 -0.02266666666666667 0.4093333333333333c0 0.008 0.004666666666666666 0.013333333333333332 0.011333333333333334 0.016l0.009999999999999998 -0.0013333333333333333 0.134 -0.062 0.006666666666666666 -0.005333333333333333 0.0026666666666666666 -0.007333333333333332 0.011333333333333334 -0.2866666666666666 -0.002 -0.008 -0.006666666666666666 -0.006666666666666666 -0.12266666666666666 -0.06133333333333333Z" stroke-width="0.6667"></path><path fill="#000000" d="M11.034666666666666 14.755333333333333c-0.96 -0.03533333333333333 -3.6806666666666663 -0.41133333333333333 -6.529999999999999 -3.26 -2.8486666666666665 -2.849333333333333 -3.224 -5.569333333333333 -3.26 -6.529999999999999 -0.05333333333333333 -1.464 1.068 -2.8859999999999997 2.3633333333333333 -3.441333333333333a0.98 0.98 0 0 1 0.9633333333333334 0.106c1.0666666666666667 0.7773333333333332 1.8026666666666666 1.9533333333333334 2.4346666666666668 2.878a1.0026666666666666 1.0026666666666666 0 0 1 -0.17066666666666666 1.3239999999999998l-1.3006666666666666 0.966a0.31999999999999995 0.31999999999999995 0 0 0 -0.09466666666666665 0.4106666666666666c0.29466666666666663 0.5353333333333333 0.8186666666666667 1.3326666666666667 1.4186666666666667 1.9326666666666665 0.6006666666666667 0.6 1.4353333333333333 1.1586666666666665 2.008 1.4866666666666666a0.32199999999999995 0.32199999999999995 0 0 0 0.42933333333333334 -0.108l0.8466666666666667 -1.2886666666666666a1.0019999999999998 1.0019999999999998 0 0 1 1.3706666666666667 -0.22133333333333333c0.938 0.6493333333333333 2.0326666666666666 1.3726666666666667 2.834 2.3986666666666663a0.98 0.98 0 0 1 0.126 0.99c-0.5579999999999999 1.302 -1.97 2.4106666666666667 -3.4386666666666668 2.3566666666666665Z" stroke-width="0.6667"></path></g></svg>