<svg viewBox="0 0 16 16" fill="none" xmlns="http://www.w3.org/2000/svg" id="Phone-Rounded--Streamline-Solar" height="16" width="16"><desc>Phone Rounded Streamline Icon: https://streamlinehq.com</desc><path d="m6.691733333333333 3.544113333333333 0.43266666666666664 0.7752866666666667c0.39046666666666663 0.6996533333333332 0.23373333333333335 1.6174799999999998 -0.38126666666666664 2.2324666666666664 -0.00006666666666666667 0.00007999999999999999 -0.7458799999999999 0.746 0.6065333333333334 2.0984666666666665 1.3519999999999999 1.3519999999999999 2.097933333333333 0.6070666666666666 2.0984666666666665 0.6065333333333334 0.615 -0.615 1.5328 -0.7717333333333333 2.2324666666666664 -0.38126666666666664l0.7752666666666667 0.43266666666666664c1.0565333333333333 0.5895999999999999 1.1812666666666667 2.0711999999999997 0.25266666666666665 2.9998666666666662 -0.5579999999999999 0.5579999999999999 -1.2416 0.9922 -1.9972666666666665 1.0208 -1.2720666666666665 0.048266666666666666 -3.4324 -0.2736666666666666 -5.599466666666666 -2.440733333333333 -2.167046666666667 -2.1670666666666665 -2.488993333333333 -4.3273866666666665 -2.4407666666666668 -5.599473333333333 0.028646666666666668 -0.75566 0.4628333333333333 -1.4392399999999999 1.02084 -1.99724 0.9286333333333332 -0.9286333333333332 2.41024 -0.8038599999999999 2.99986 0.25262666666666667Z" fill="#000000" stroke-width="0.6667"></path></svg>