<svg xmlns="http://www.w3.org/2000/svg" viewBox="0 0 16 16" fill="#000000" id="Plus-Thin--Streamline-Phosphor-Thin" height="16" width="16"><desc>Plus Thin Streamline Icon: https://streamlinehq.com</desc><path d="M15.84 8c0 0.18825625 -0.1526125 0.34086875 -0.34086875 0.34086875H8.34086875v7.1582625c0 0.2624 -0.28405625 0.4264 -0.5113 0.2952 -0.10546875 -0.0608875 -0.1704375 -0.17341875 -0.1704375 -0.2952V8.34086875H0.50086875c-0.2624 0 -0.4264 -0.28405625 -0.2952 -0.51130625 0.0608875 -0.1054625 0.17341875 -0.17043125 0.2952 -0.17043125h7.1582625V0.50086875c0 -0.2624 0.28405625 -0.4264 0.51130625 -0.2952 0.1054625 0.0608875 0.17043125 0.17341875 0.17043125 0.2952v7.1582625h7.1582625c0.18825625 0 0.34086875 0.1526125 0.34086875 0.34086875Z" stroke-width="0.0625"></path></svg>